<svg xmlns="http://www.w3.org/2000/svg" viewBox="0 0 91.11 20"><path d="M34.17 16.09h-6.31V4.19h6v1.26h-4.6v4h4.3v1.25h-4.3v4.17h4.91v1.26zm3.47 0h-1.36V3.51h1.36v12.58zm9.59-3.91h-6a3.18 3.18 0 0 0 .77 2.19 2.63 2.63 0 0 0 2 .77 4.18 4.18 0 0 0 2.64-.95v1.28a4.93 4.93 0 0 1-3 .81 3.59 3.59 0 0 1-2.83-1.16 4.74 4.74 0 0 1-1-3.26 4.65 4.65 0 0 1 1.13-3.23 3.61 3.61 0 0 1 2.79-1.25 3.2 3.2 0 0 1 2.58 1.08 4.5 4.5 0 0 1 .91 3v.71zM45.83 11a2.77 2.77 0 0 0-.57-1.83 1.94 1.94 0 0 0-1.56-.66 2.2 2.2 0 0 0-1.64.69 3.13 3.13 0 0 0-.83 1.8h4.59zm4.85 3.83V20h-1.39V7.59h1.36v1.49a3.22 3.22 0 0 1 2.94-1.69 3.11 3.11 0 0 1 2.57 1.14 4.73 4.73 0 0 1 .92 3.06 5.27 5.27 0 0 1-1 3.42 3.46 3.46 0 0 1-2.84 1.28 2.84 2.84 0 0 1-2.56-1.43zm0-3.43v1.19a2.53 2.53 0 0 0 .68 1.79A2.44 2.44 0 0 0 55 14.2a4.34 4.34 0 0 0 .7-2.63 3.43 3.43 0 0 0-.66-2.22 2.17 2.17 0 0 0-1.78-.81 2.41 2.41 0 0 0-1.91.83 3 3 0 0 0-.7 2.06zm15.69 4.66H65v-4.9q0-2.66-2-2.66a2.15 2.15 0 0 0-1.68.77 2.87 2.87 0 0 0-.68 2v4.81h-1.36V3.51h1.36V9a3.09 3.09 0 0 1 2.79-1.61q2.87 0 2.87 3.46v5.24zm8.65 0h-1.4v-1.3A2.85 2.85 0 0 1 71 16.29a2.79 2.79 0 0 1-2-.67 2.33 2.33 0 0 1-.72-1.78q0-2.38 2.81-2.77l2.55-.36q0-2.17-1.75-2.17a4.18 4.18 0 0 0-2.77 1V8.19a5.26 5.26 0 0 1 2.88-.8q3 0 3 3.17v5.53zm-1.36-4.3l-2 .28a3.33 3.33 0 0 0-1.43.47 1.35 1.35 0 0 0-.48 1.19 1.29 1.29 0 0 0 .44 1 1.71 1.71 0 0 0 1.18.39 2.19 2.19 0 0 0 1.63-.66 2.54 2.54 0 0 0 .66-1.8v-.84zm11 4.3h-1.41v-4.82q0-2.71-2-2.71a2.14 2.14 0 0 0-1.69.77 2.85 2.85 0 0 0-.67 1.94v4.85h-1.34v-8.5h1.36V9a3.07 3.07 0 0 1 2.79-1.61 2.6 2.6 0 0 1 2.13.9 4 4 0 0 1 .74 2.6v5.2zm6.45-.06a2.62 2.62 0 0 1-1.27.27q-2.23 0-2.23-2.49v-5h-1.46V7.59h1.46V5.52L89 5.08v2.51h2.14v1.16H89v4.79a2 2 0 0 0 .29 1.22 1.16 1.16 0 0 0 1 .37 1.43 1.43 0 0 0 .89-.28V16zM0 2.21V16.1a7.73 7.73 0 0 1 1.29-1.38 9.22 9.22 0 0 1 3.38-1.78 11.62 11.62 0 0 1 2-.32l-.09.7c0 .55 0 .94.09 1.26L7 15.82A7.66 7.66 0 0 1 6.77 14a5.4 5.4 0 0 1 1-3.41 4.33 4.33 0 0 1 1.17-1.17 7.31 7.31 0 0 1 2.34-.89c1.27-.36 2.1-.55 2.42-.68a2.37 2.37 0 0 0 1-.93 1.56 1.56 0 0 0 .22-1.09.73.73 0 0 0-.53-.83 2.05 2.05 0 0 0-2.05.66 2.51 2.51 0 0 1-2.3.81 1.9 1.9 0 0 1-1.29-.67 2.05 2.05 0 0 1-.28-1l.85-.3a.78.78 0 0 0 .63 1 1.25 1.25 0 0 0 1.18-.44A6.25 6.25 0 0 1 12 4.2a3.5 3.5 0 0 1 2-.69 3.75 3.75 0 0 1 1.91.34 2.26 2.26 0 0 1 1 1.57 6.68 6.68 0 0 1-.11 3 16 16 0 0 1-1.12 3.21c-.39.78-1.1 1.88-2 3.34s-1.34 2.03-1.39 2.12c-.1.33-.26.77-.41 1.35-.06.21-.11.4-.16.59l9.2 1V0z" fill="#fff"/></svg>